<svg xmlns="http://www.w3.org/2000/svg" viewBox="0 0 45 45" width="360" height="360" shape-rendering="crispEdges">
  <rect x="0" y="0" width="45" height="45" fill="#ffffff"/>
  <g fill="#0d1a0d">
    <rect x="2" y="2" width="1" height="1"/><rect x="3" y="2" width="1" height="1"/><rect x="4" y="2" width="1" height="1"/><rect x="5" y="2" width="1" height="1"/><rect x="6" y="2" width="1" height="1"/><rect x="7" y="2" width="1" height="1"/><rect x="8" y="2" width="1" height="1"/><rect x="10" y="2" width="1" height="1"/><rect x="11" y="2" width="1" height="1"/><rect x="14" y="2" width="1" height="1"/><rect x="15" y="2" width="1" height="1"/><rect x="17" y="2" width="1" height="1"/><rect x="19" y="2" width="1" height="1"/><rect x="20" y="2" width="1" height="1"/><rect x="21" y="2" width="1" height="1"/><rect x="24" y="2" width="1" height="1"/><rect x="25" y="2" width="1" height="1"/><rect x="30" y="2" width="1" height="1"/><rect x="33" y="2" width="1" height="1"/><rect x="36" y="2" width="1" height="1"/><rect x="37" y="2" width="1" height="1"/><rect x="38" y="2" width="1" height="1"/><rect x="39" y="2" width="1" height="1"/><rect x="40" y="2" width="1" height="1"/><rect x="41" y="2" width="1" height="1"/><rect x="42" y="2" width="1" height="1"/><rect x="2" y="3" width="1" height="1"/><rect x="8" y="3" width="1" height="1"/><rect x="14" y="3" width="1" height="1"/><rect x="15" y="3" width="1" height="1"/><rect x="17" y="3" width="1" height="1"/><rect x="18" y="3" width="1" height="1"/><rect x="22" y="3" width="1" height="1"/><rect x="23" y="3" width="1" height="1"/><rect x="24" y="3" width="1" height="1"/><rect x="27" y="3" width="1" height="1"/><rect x="28" y="3" width="1" height="1"/><rect x="30" y="3" width="1" height="1"/><rect x="32" y="3" width="1" height="1"/><rect x="36" y="3" width="1" height="1"/><rect x="42" y="3" width="1" height="1"/><rect x="2" y="4" width="1" height="1"/><rect x="4" y="4" width="1" height="1"/><rect x="5" y="4" width="1" height="1"/><rect x="6" y="4" width="1" height="1"/><rect x="8" y="4" width="1" height="1"/><rect x="10" y="4" width="1" height="1"/><rect x="11" y="4" width="1" height="1"/><rect x="13" y="4" width="1" height="1"/><rect x="14" y="4" width="1" height="1"/><rect x="15" y="4" width="1" height="1"/><rect x="19" y="4" width="1" height="1"/><rect x="21" y="4" width="1" height="1"/><rect x="24" y="4" width="1" height="1"/><rect x="25" y="4" width="1" height="1"/><rect x="26" y="4" width="1" height="1"/><rect x="27" y="4" width="1" height="1"/><rect x="31" y="4" width="1" height="1"/><rect x="33" y="4" width="1" height="1"/><rect x="36" y="4" width="1" height="1"/><rect x="38" y="4" width="1" height="1"/><rect x="39" y="4" width="1" height="1"/><rect x="40" y="4" width="1" height="1"/><rect x="42" y="4" width="1" height="1"/><rect x="2" y="5" width="1" height="1"/><rect x="4" y="5" width="1" height="1"/><rect x="5" y="5" width="1" height="1"/><rect x="6" y="5" width="1" height="1"/><rect x="8" y="5" width="1" height="1"/><rect x="11" y="5" width="1" height="1"/><rect x="14" y="5" width="1" height="1"/><rect x="15" y="5" width="1" height="1"/><rect x="16" y="5" width="1" height="1"/><rect x="17" y="5" width="1" height="1"/><rect x="21" y="5" width="1" height="1"/><rect x="22" y="5" width="1" height="1"/><rect x="24" y="5" width="1" height="1"/><rect x="25" y="5" width="1" height="1"/><rect x="26" y="5" width="1" height="1"/><rect x="29" y="5" width="1" height="1"/><rect x="30" y="5" width="1" height="1"/><rect x="32" y="5" width="1" height="1"/><rect x="34" y="5" width="1" height="1"/><rect x="36" y="5" width="1" height="1"/><rect x="38" y="5" width="1" height="1"/><rect x="39" y="5" width="1" height="1"/><rect x="40" y="5" width="1" height="1"/><rect x="42" y="5" width="1" height="1"/><rect x="2" y="6" width="1" height="1"/><rect x="4" y="6" width="1" height="1"/><rect x="5" y="6" width="1" height="1"/><rect x="6" y="6" width="1" height="1"/><rect x="8" y="6" width="1" height="1"/><rect x="11" y="6" width="1" height="1"/><rect x="13" y="6" width="1" height="1"/><rect x="14" y="6" width="1" height="1"/><rect x="15" y="6" width="1" height="1"/><rect x="17" y="6" width="1" height="1"/><rect x="18" y="6" width="1" height="1"/><rect x="22" y="6" width="1" height="1"/><rect x="23" y="6" width="1" height="1"/><rect x="24" y="6" width="1" height="1"/><rect x="26" y="6" width="1" height="1"/><rect x="28" y="6" width="1" height="1"/><rect x="31" y="6" width="1" height="1"/><rect x="32" y="6" width="1" height="1"/><rect x="33" y="6" width="1" height="1"/><rect x="36" y="6" width="1" height="1"/><rect x="38" y="6" width="1" height="1"/><rect x="39" y="6" width="1" height="1"/><rect x="40" y="6" width="1" height="1"/><rect x="42" y="6" width="1" height="1"/><rect x="2" y="7" width="1" height="1"/><rect x="8" y="7" width="1" height="1"/><rect x="10" y="7" width="1" height="1"/><rect x="13" y="7" width="1" height="1"/><rect x="15" y="7" width="1" height="1"/><rect x="17" y="7" width="1" height="1"/><rect x="19" y="7" width="1" height="1"/><rect x="22" y="7" width="1" height="1"/><rect x="24" y="7" width="1" height="1"/><rect x="26" y="7" width="1" height="1"/><rect x="28" y="7" width="1" height="1"/><rect x="30" y="7" width="1" height="1"/><rect x="31" y="7" width="1" height="1"/><rect x="36" y="7" width="1" height="1"/><rect x="42" y="7" width="1" height="1"/><rect x="2" y="8" width="1" height="1"/><rect x="3" y="8" width="1" height="1"/><rect x="4" y="8" width="1" height="1"/><rect x="5" y="8" width="1" height="1"/><rect x="6" y="8" width="1" height="1"/><rect x="7" y="8" width="1" height="1"/><rect x="8" y="8" width="1" height="1"/><rect x="10" y="8" width="1" height="1"/><rect x="12" y="8" width="1" height="1"/><rect x="14" y="8" width="1" height="1"/><rect x="16" y="8" width="1" height="1"/><rect x="18" y="8" width="1" height="1"/><rect x="20" y="8" width="1" height="1"/><rect x="22" y="8" width="1" height="1"/><rect x="24" y="8" width="1" height="1"/><rect x="26" y="8" width="1" height="1"/><rect x="28" y="8" width="1" height="1"/><rect x="30" y="8" width="1" height="1"/><rect x="32" y="8" width="1" height="1"/><rect x="34" y="8" width="1" height="1"/><rect x="36" y="8" width="1" height="1"/><rect x="37" y="8" width="1" height="1"/><rect x="38" y="8" width="1" height="1"/><rect x="39" y="8" width="1" height="1"/><rect x="40" y="8" width="1" height="1"/><rect x="41" y="8" width="1" height="1"/><rect x="42" y="8" width="1" height="1"/><rect x="13" y="9" width="1" height="1"/><rect x="15" y="9" width="1" height="1"/><rect x="16" y="9" width="1" height="1"/><rect x="17" y="9" width="1" height="1"/><rect x="24" y="9" width="1" height="1"/><rect x="26" y="9" width="1" height="1"/><rect x="32" y="9" width="1" height="1"/><rect x="33" y="9" width="1" height="1"/><rect x="34" y="9" width="1" height="1"/><rect x="2" y="10" width="1" height="1"/><rect x="4" y="10" width="1" height="1"/><rect x="8" y="10" width="1" height="1"/><rect x="9" y="10" width="1" height="1"/><rect x="11" y="10" width="1" height="1"/><rect x="12" y="10" width="1" height="1"/><rect x="15" y="10" width="1" height="1"/><rect x="16" y="10" width="1" height="1"/><rect x="19" y="10" width="1" height="1"/><rect x="22" y="10" width="1" height="1"/><rect x="25" y="10" width="1" height="1"/><rect x="28" y="10" width="1" height="1"/><rect x="30" y="10" width="1" height="1"/><rect x="37" y="10" width="1" height="1"/><rect x="40" y="10" width="1" height="1"/><rect x="42" y="10" width="1" height="1"/><rect x="3" y="11" width="1" height="1"/><rect x="4" y="11" width="1" height="1"/><rect x="5" y="11" width="1" height="1"/><rect x="6" y="11" width="1" height="1"/><rect x="7" y="11" width="1" height="1"/><rect x="9" y="11" width="1" height="1"/><rect x="12" y="11" width="1" height="1"/><rect x="13" y="11" width="1" height="1"/><rect x="17" y="11" width="1" height="1"/><rect x="20" y="11" width="1" height="1"/><rect x="21" y="11" width="1" height="1"/><rect x="22" y="11" width="1" height="1"/><rect x="24" y="11" width="1" height="1"/><rect x="25" y="11" width="1" height="1"/><rect x="26" y="11" width="1" height="1"/><rect x="27" y="11" width="1" height="1"/><rect x="29" y="11" width="1" height="1"/><rect x="30" y="11" width="1" height="1"/><rect x="33" y="11" width="1" height="1"/><rect x="34" y="11" width="1" height="1"/><rect x="35" y="11" width="1" height="1"/><rect x="37" y="11" width="1" height="1"/><rect x="40" y="11" width="1" height="1"/><rect x="42" y="11" width="1" height="1"/><rect x="2" y="12" width="1" height="1"/><rect x="4" y="12" width="1" height="1"/><rect x="8" y="12" width="1" height="1"/><rect x="9" y="12" width="1" height="1"/><rect x="12" y="12" width="1" height="1"/><rect x="13" y="12" width="1" height="1"/><rect x="14" y="12" width="1" height="1"/><rect x="16" y="12" width="1" height="1"/><rect x="18" y="12" width="1" height="1"/><rect x="19" y="12" width="1" height="1"/><rect x="21" y="12" width="1" height="1"/><rect x="24" y="12" width="1" height="1"/><rect x="25" y="12" width="1" height="1"/><rect x="28" y="12" width="1" height="1"/><rect x="29" y="12" width="1" height="1"/><rect x="31" y="12" width="1" height="1"/><rect x="32" y="12" width="1" height="1"/><rect x="33" y="12" width="1" height="1"/><rect x="38" y="12" width="1" height="1"/><rect x="39" y="12" width="1" height="1"/><rect x="40" y="12" width="1" height="1"/><rect x="42" y="12" width="1" height="1"/><rect x="5" y="13" width="1" height="1"/><rect x="6" y="13" width="1" height="1"/><rect x="7" y="13" width="1" height="1"/><rect x="10" y="13" width="1" height="1"/><rect x="11" y="13" width="1" height="1"/><rect x="13" y="13" width="1" height="1"/><rect x="14" y="13" width="1" height="1"/><rect x="16" y="13" width="1" height="1"/><rect x="17" y="13" width="1" height="1"/><rect x="20" y="13" width="1" height="1"/><rect x="21" y="13" width="1" height="1"/><rect x="24" y="13" width="1" height="1"/><rect x="25" y="13" width="1" height="1"/><rect x="26" y="13" width="1" height="1"/><rect x="33" y="13" width="1" height="1"/><rect x="34" y="13" width="1" height="1"/><rect x="35" y="13" width="1" height="1"/><rect x="36" y="13" width="1" height="1"/><rect x="39" y="13" width="1" height="1"/><rect x="41" y="13" width="1" height="1"/><rect x="42" y="13" width="1" height="1"/><rect x="2" y="14" width="1" height="1"/><rect x="3" y="14" width="1" height="1"/><rect x="7" y="14" width="1" height="1"/><rect x="8" y="14" width="1" height="1"/><rect x="15" y="14" width="1" height="1"/><rect x="17" y="14" width="1" height="1"/><rect x="18" y="14" width="1" height="1"/><rect x="21" y="14" width="1" height="1"/><rect x="22" y="14" width="1" height="1"/><rect x="27" y="14" width="1" height="1"/><rect x="29" y="14" width="1" height="1"/><rect x="30" y="14" width="1" height="1"/><rect x="34" y="14" width="1" height="1"/><rect x="35" y="14" width="1" height="1"/><rect x="36" y="14" width="1" height="1"/><rect x="42" y="14" width="1" height="1"/><rect x="4" y="15" width="1" height="1"/><rect x="6" y="15" width="1" height="1"/><rect x="9" y="15" width="1" height="1"/><rect x="11" y="15" width="1" height="1"/><rect x="12" y="15" width="1" height="1"/><rect x="13" y="15" width="1" height="1"/><rect x="15" y="15" width="1" height="1"/><rect x="16" y="15" width="1" height="1"/><rect x="17" y="15" width="1" height="1"/><rect x="19" y="15" width="1" height="1"/><rect x="20" y="15" width="1" height="1"/><rect x="22" y="15" width="1" height="1"/><rect x="24" y="15" width="1" height="1"/><rect x="28" y="15" width="1" height="1"/><rect x="30" y="15" width="1" height="1"/><rect x="31" y="15" width="1" height="1"/><rect x="34" y="15" width="1" height="1"/><rect x="35" y="15" width="1" height="1"/><rect x="36" y="15" width="1" height="1"/><rect x="39" y="15" width="1" height="1"/><rect x="41" y="15" width="1" height="1"/><rect x="2" y="16" width="1" height="1"/><rect x="8" y="16" width="1" height="1"/><rect x="10" y="16" width="1" height="1"/><rect x="11" y="16" width="1" height="1"/><rect x="13" y="16" width="1" height="1"/><rect x="15" y="16" width="1" height="1"/><rect x="22" y="16" width="1" height="1"/><rect x="23" y="16" width="1" height="1"/><rect x="24" y="16" width="1" height="1"/><rect x="25" y="16" width="1" height="1"/><rect x="28" y="16" width="1" height="1"/><rect x="29" y="16" width="1" height="1"/><rect x="31" y="16" width="1" height="1"/><rect x="32" y="16" width="1" height="1"/><rect x="33" y="16" width="1" height="1"/><rect x="35" y="16" width="1" height="1"/><rect x="36" y="16" width="1" height="1"/><rect x="37" y="16" width="1" height="1"/><rect x="38" y="16" width="1" height="1"/><rect x="40" y="16" width="1" height="1"/><rect x="42" y="16" width="1" height="1"/><rect x="2" y="17" width="1" height="1"/><rect x="4" y="17" width="1" height="1"/><rect x="5" y="17" width="1" height="1"/><rect x="9" y="17" width="1" height="1"/><rect x="11" y="17" width="1" height="1"/><rect x="12" y="17" width="1" height="1"/><rect x="13" y="17" width="1" height="1"/><rect x="15" y="17" width="1" height="1"/><rect x="17" y="17" width="1" height="1"/><rect x="18" y="17" width="1" height="1"/><rect x="20" y="17" width="1" height="1"/><rect x="21" y="17" width="1" height="1"/><rect x="22" y="17" width="1" height="1"/><rect x="24" y="17" width="1" height="1"/><rect x="28" y="17" width="1" height="1"/><rect x="29" y="17" width="1" height="1"/><rect x="30" y="17" width="1" height="1"/><rect x="35" y="17" width="1" height="1"/><rect x="36" y="17" width="1" height="1"/><rect x="37" y="17" width="1" height="1"/><rect x="39" y="17" width="1" height="1"/><rect x="42" y="17" width="1" height="1"/><rect x="2" y="18" width="1" height="1"/><rect x="3" y="18" width="1" height="1"/><rect x="5" y="18" width="1" height="1"/><rect x="6" y="18" width="1" height="1"/><rect x="8" y="18" width="1" height="1"/><rect x="9" y="18" width="1" height="1"/><rect x="13" y="18" width="1" height="1"/><rect x="14" y="18" width="1" height="1"/><rect x="22" y="18" width="1" height="1"/><rect x="24" y="18" width="1" height="1"/><rect x="25" y="18" width="1" height="1"/><rect x="26" y="18" width="1" height="1"/><rect x="27" y="18" width="1" height="1"/><rect x="29" y="18" width="1" height="1"/><rect x="31" y="18" width="1" height="1"/><rect x="33" y="18" width="1" height="1"/><rect x="35" y="18" width="1" height="1"/><rect x="36" y="18" width="1" height="1"/><rect x="40" y="18" width="1" height="1"/><rect x="4" y="19" width="1" height="1"/><rect x="5" y="19" width="1" height="1"/><rect x="7" y="19" width="1" height="1"/><rect x="9" y="19" width="1" height="1"/><rect x="12" y="19" width="1" height="1"/><rect x="14" y="19" width="1" height="1"/><rect x="15" y="19" width="1" height="1"/><rect x="16" y="19" width="1" height="1"/><rect x="17" y="19" width="1" height="1"/><rect x="18" y="19" width="1" height="1"/><rect x="19" y="19" width="1" height="1"/><rect x="20" y="19" width="1" height="1"/><rect x="21" y="19" width="1" height="1"/><rect x="24" y="19" width="1" height="1"/><rect x="25" y="19" width="1" height="1"/><rect x="26" y="19" width="1" height="1"/><rect x="27" y="19" width="1" height="1"/><rect x="30" y="19" width="1" height="1"/><rect x="31" y="19" width="1" height="1"/><rect x="34" y="19" width="1" height="1"/><rect x="35" y="19" width="1" height="1"/><rect x="36" y="19" width="1" height="1"/><rect x="37" y="19" width="1" height="1"/><rect x="39" y="19" width="1" height="1"/><rect x="2" y="20" width="1" height="1"/><rect x="4" y="20" width="1" height="1"/><rect x="5" y="20" width="1" height="1"/><rect x="7" y="20" width="1" height="1"/><rect x="8" y="20" width="1" height="1"/><rect x="9" y="20" width="1" height="1"/><rect x="10" y="20" width="1" height="1"/><rect x="11" y="20" width="1" height="1"/><rect x="13" y="20" width="1" height="1"/><rect x="14" y="20" width="1" height="1"/><rect x="21" y="20" width="1" height="1"/><rect x="22" y="20" width="1" height="1"/><rect x="23" y="20" width="1" height="1"/><rect x="24" y="20" width="1" height="1"/><rect x="25" y="20" width="1" height="1"/><rect x="29" y="20" width="1" height="1"/><rect x="31" y="20" width="1" height="1"/><rect x="33" y="20" width="1" height="1"/><rect x="36" y="20" width="1" height="1"/><rect x="37" y="20" width="1" height="1"/><rect x="38" y="20" width="1" height="1"/><rect x="42" y="20" width="1" height="1"/><rect x="3" y="21" width="1" height="1"/><rect x="4" y="21" width="1" height="1"/><rect x="9" y="21" width="1" height="1"/><rect x="10" y="21" width="1" height="1"/><rect x="14" y="21" width="1" height="1"/><rect x="17" y="21" width="1" height="1"/><rect x="19" y="21" width="1" height="1"/><rect x="21" y="21" width="1" height="1"/><rect x="22" y="21" width="1" height="1"/><rect x="24" y="21" width="1" height="1"/><rect x="26" y="21" width="1" height="1"/><rect x="27" y="21" width="1" height="1"/><rect x="30" y="21" width="1" height="1"/><rect x="33" y="21" width="1" height="1"/><rect x="34" y="21" width="1" height="1"/><rect x="35" y="21" width="1" height="1"/><rect x="36" y="21" width="1" height="1"/><rect x="39" y="21" width="1" height="1"/><rect x="41" y="21" width="1" height="1"/><rect x="2" y="22" width="1" height="1"/><rect x="3" y="22" width="1" height="1"/><rect x="4" y="22" width="1" height="1"/><rect x="7" y="22" width="1" height="1"/><rect x="8" y="22" width="1" height="1"/><rect x="12" y="22" width="1" height="1"/><rect x="13" y="22" width="1" height="1"/><rect x="16" y="22" width="1" height="1"/><rect x="17" y="22" width="1" height="1"/><rect x="19" y="22" width="1" height="1"/><rect x="21" y="22" width="1" height="1"/><rect x="23" y="22" width="1" height="1"/><rect x="24" y="22" width="1" height="1"/><rect x="25" y="22" width="1" height="1"/><rect x="27" y="22" width="1" height="1"/><rect x="29" y="22" width="1" height="1"/><rect x="32" y="22" width="1" height="1"/><rect x="33" y="22" width="1" height="1"/><rect x="34" y="22" width="1" height="1"/><rect x="36" y="22" width="1" height="1"/><rect x="37" y="22" width="1" height="1"/><rect x="40" y="22" width="1" height="1"/><rect x="41" y="22" width="1" height="1"/><rect x="2" y="23" width="1" height="1"/><rect x="6" y="23" width="1" height="1"/><rect x="7" y="23" width="1" height="1"/><rect x="10" y="23" width="1" height="1"/><rect x="12" y="23" width="1" height="1"/><rect x="13" y="23" width="1" height="1"/><rect x="14" y="23" width="1" height="1"/><rect x="17" y="23" width="1" height="1"/><rect x="21" y="23" width="1" height="1"/><rect x="24" y="23" width="1" height="1"/><rect x="25" y="23" width="1" height="1"/><rect x="26" y="23" width="1" height="1"/><rect x="27" y="23" width="1" height="1"/><rect x="29" y="23" width="1" height="1"/><rect x="31" y="23" width="1" height="1"/><rect x="32" y="23" width="1" height="1"/><rect x="34" y="23" width="1" height="1"/><rect x="37" y="23" width="1" height="1"/><rect x="42" y="23" width="1" height="1"/><rect x="2" y="24" width="1" height="1"/><rect x="6" y="24" width="1" height="1"/><rect x="8" y="24" width="1" height="1"/><rect x="9" y="24" width="1" height="1"/><rect x="14" y="24" width="1" height="1"/><rect x="15" y="24" width="1" height="1"/><rect x="16" y="24" width="1" height="1"/><rect x="17" y="24" width="1" height="1"/><rect x="19" y="24" width="1" height="1"/><rect x="20" y="24" width="1" height="1"/><rect x="21" y="24" width="1" height="1"/><rect x="23" y="24" width="1" height="1"/><rect x="24" y="24" width="1" height="1"/><rect x="25" y="24" width="1" height="1"/><rect x="26" y="24" width="1" height="1"/><rect x="29" y="24" width="1" height="1"/><rect x="31" y="24" width="1" height="1"/><rect x="32" y="24" width="1" height="1"/><rect x="33" y="24" width="1" height="1"/><rect x="34" y="24" width="1" height="1"/><rect x="35" y="24" width="1" height="1"/><rect x="36" y="24" width="1" height="1"/><rect x="42" y="24" width="1" height="1"/><rect x="7" y="25" width="1" height="1"/><rect x="9" y="25" width="1" height="1"/><rect x="13" y="25" width="1" height="1"/><rect x="20" y="25" width="1" height="1"/><rect x="25" y="25" width="1" height="1"/><rect x="29" y="25" width="1" height="1"/><rect x="32" y="25" width="1" height="1"/><rect x="34" y="25" width="1" height="1"/><rect x="38" y="25" width="1" height="1"/><rect x="39" y="25" width="1" height="1"/><rect x="42" y="25" width="1" height="1"/><rect x="2" y="26" width="1" height="1"/><rect x="4" y="26" width="1" height="1"/><rect x="5" y="26" width="1" height="1"/><rect x="6" y="26" width="1" height="1"/><rect x="7" y="26" width="1" height="1"/><rect x="8" y="26" width="1" height="1"/><rect x="10" y="26" width="1" height="1"/><rect x="16" y="26" width="1" height="1"/><rect x="17" y="26" width="1" height="1"/><rect x="19" y="26" width="1" height="1"/><rect x="21" y="26" width="1" height="1"/><rect x="22" y="26" width="1" height="1"/><rect x="24" y="26" width="1" height="1"/><rect x="26" y="26" width="1" height="1"/><rect x="30" y="26" width="1" height="1"/><rect x="33" y="26" width="1" height="1"/><rect x="34" y="26" width="1" height="1"/><rect x="36" y="26" width="1" height="1"/><rect x="38" y="26" width="1" height="1"/><rect x="40" y="26" width="1" height="1"/><rect x="2" y="27" width="1" height="1"/><rect x="5" y="27" width="1" height="1"/><rect x="7" y="27" width="1" height="1"/><rect x="11" y="27" width="1" height="1"/><rect x="12" y="27" width="1" height="1"/><rect x="13" y="27" width="1" height="1"/><rect x="16" y="27" width="1" height="1"/><rect x="22" y="27" width="1" height="1"/><rect x="23" y="27" width="1" height="1"/><rect x="25" y="27" width="1" height="1"/><rect x="26" y="27" width="1" height="1"/><rect x="29" y="27" width="1" height="1"/><rect x="30" y="27" width="1" height="1"/><rect x="33" y="27" width="1" height="1"/><rect x="37" y="27" width="1" height="1"/><rect x="39" y="27" width="1" height="1"/><rect x="41" y="27" width="1" height="1"/><rect x="42" y="27" width="1" height="1"/><rect x="2" y="28" width="1" height="1"/><rect x="5" y="28" width="1" height="1"/><rect x="6" y="28" width="1" height="1"/><rect x="7" y="28" width="1" height="1"/><rect x="8" y="28" width="1" height="1"/><rect x="10" y="28" width="1" height="1"/><rect x="13" y="28" width="1" height="1"/><rect x="14" y="28" width="1" height="1"/><rect x="15" y="28" width="1" height="1"/><rect x="17" y="28" width="1" height="1"/><rect x="18" y="28" width="1" height="1"/><rect x="21" y="28" width="1" height="1"/><rect x="23" y="28" width="1" height="1"/><rect x="24" y="28" width="1" height="1"/><rect x="25" y="28" width="1" height="1"/><rect x="26" y="28" width="1" height="1"/><rect x="27" y="28" width="1" height="1"/><rect x="29" y="28" width="1" height="1"/><rect x="30" y="28" width="1" height="1"/><rect x="32" y="28" width="1" height="1"/><rect x="33" y="28" width="1" height="1"/><rect x="35" y="28" width="1" height="1"/><rect x="36" y="28" width="1" height="1"/><rect x="37" y="28" width="1" height="1"/><rect x="38" y="28" width="1" height="1"/><rect x="39" y="28" width="1" height="1"/><rect x="40" y="28" width="1" height="1"/><rect x="41" y="28" width="1" height="1"/><rect x="42" y="28" width="1" height="1"/><rect x="2" y="29" width="1" height="1"/><rect x="6" y="29" width="1" height="1"/><rect x="7" y="29" width="1" height="1"/><rect x="10" y="29" width="1" height="1"/><rect x="11" y="29" width="1" height="1"/><rect x="12" y="29" width="1" height="1"/><rect x="13" y="29" width="1" height="1"/><rect x="14" y="29" width="1" height="1"/><rect x="17" y="29" width="1" height="1"/><rect x="21" y="29" width="1" height="1"/><rect x="25" y="29" width="1" height="1"/><rect x="28" y="29" width="1" height="1"/><rect x="29" y="29" width="1" height="1"/><rect x="30" y="29" width="1" height="1"/><rect x="32" y="29" width="1" height="1"/><rect x="33" y="29" width="1" height="1"/><rect x="34" y="29" width="1" height="1"/><rect x="35" y="29" width="1" height="1"/><rect x="36" y="29" width="1" height="1"/><rect x="38" y="29" width="1" height="1"/><rect x="39" y="29" width="1" height="1"/><rect x="41" y="29" width="1" height="1"/><rect x="42" y="29" width="1" height="1"/><rect x="2" y="30" width="1" height="1"/><rect x="3" y="30" width="1" height="1"/><rect x="7" y="30" width="1" height="1"/><rect x="8" y="30" width="1" height="1"/><rect x="11" y="30" width="1" height="1"/><rect x="12" y="30" width="1" height="1"/><rect x="15" y="30" width="1" height="1"/><rect x="19" y="30" width="1" height="1"/><rect x="21" y="30" width="1" height="1"/><rect x="24" y="30" width="1" height="1"/><rect x="25" y="30" width="1" height="1"/><rect x="26" y="30" width="1" height="1"/><rect x="30" y="30" width="1" height="1"/><rect x="36" y="30" width="1" height="1"/><rect x="38" y="30" width="1" height="1"/><rect x="42" y="30" width="1" height="1"/><rect x="3" y="31" width="1" height="1"/><rect x="5" y="31" width="1" height="1"/><rect x="6" y="31" width="1" height="1"/><rect x="10" y="31" width="1" height="1"/><rect x="13" y="31" width="1" height="1"/><rect x="15" y="31" width="1" height="1"/><rect x="17" y="31" width="1" height="1"/><rect x="20" y="31" width="1" height="1"/><rect x="23" y="31" width="1" height="1"/><rect x="24" y="31" width="1" height="1"/><rect x="26" y="31" width="1" height="1"/><rect x="27" y="31" width="1" height="1"/><rect x="29" y="31" width="1" height="1"/><rect x="30" y="31" width="1" height="1"/><rect x="31" y="31" width="1" height="1"/><rect x="33" y="31" width="1" height="1"/><rect x="35" y="31" width="1" height="1"/><rect x="37" y="31" width="1" height="1"/><rect x="39" y="31" width="1" height="1"/><rect x="42" y="31" width="1" height="1"/><rect x="2" y="32" width="1" height="1"/><rect x="3" y="32" width="1" height="1"/><rect x="4" y="32" width="1" height="1"/><rect x="5" y="32" width="1" height="1"/><rect x="6" y="32" width="1" height="1"/><rect x="8" y="32" width="1" height="1"/><rect x="13" y="32" width="1" height="1"/><rect x="14" y="32" width="1" height="1"/><rect x="15" y="32" width="1" height="1"/><rect x="16" y="32" width="1" height="1"/><rect x="20" y="32" width="1" height="1"/><rect x="21" y="32" width="1" height="1"/><rect x="23" y="32" width="1" height="1"/><rect x="24" y="32" width="1" height="1"/><rect x="26" y="32" width="1" height="1"/><rect x="28" y="32" width="1" height="1"/><rect x="29" y="32" width="1" height="1"/><rect x="31" y="32" width="1" height="1"/><rect x="32" y="32" width="1" height="1"/><rect x="33" y="32" width="1" height="1"/><rect x="34" y="32" width="1" height="1"/><rect x="35" y="32" width="1" height="1"/><rect x="38" y="32" width="1" height="1"/><rect x="40" y="32" width="1" height="1"/><rect x="42" y="32" width="1" height="1"/><rect x="4" y="33" width="1" height="1"/><rect x="9" y="33" width="1" height="1"/><rect x="10" y="33" width="1" height="1"/><rect x="12" y="33" width="1" height="1"/><rect x="17" y="33" width="1" height="1"/><rect x="25" y="33" width="1" height="1"/><rect x="26" y="33" width="1" height="1"/><rect x="28" y="33" width="1" height="1"/><rect x="29" y="33" width="1" height="1"/><rect x="32" y="33" width="1" height="1"/><rect x="33" y="33" width="1" height="1"/><rect x="36" y="33" width="1" height="1"/><rect x="37" y="33" width="1" height="1"/><rect x="38" y="33" width="1" height="1"/><rect x="2" y="34" width="1" height="1"/><rect x="3" y="34" width="1" height="1"/><rect x="5" y="34" width="1" height="1"/><rect x="6" y="34" width="1" height="1"/><rect x="7" y="34" width="1" height="1"/><rect x="8" y="34" width="1" height="1"/><rect x="9" y="34" width="1" height="1"/><rect x="10" y="34" width="1" height="1"/><rect x="15" y="34" width="1" height="1"/><rect x="16" y="34" width="1" height="1"/><rect x="17" y="34" width="1" height="1"/><rect x="19" y="34" width="1" height="1"/><rect x="21" y="34" width="1" height="1"/><rect x="23" y="34" width="1" height="1"/><rect x="26" y="34" width="1" height="1"/><rect x="27" y="34" width="1" height="1"/><rect x="29" y="34" width="1" height="1"/><rect x="30" y="34" width="1" height="1"/><rect x="31" y="34" width="1" height="1"/><rect x="33" y="34" width="1" height="1"/><rect x="34" y="34" width="1" height="1"/><rect x="35" y="34" width="1" height="1"/><rect x="36" y="34" width="1" height="1"/><rect x="37" y="34" width="1" height="1"/><rect x="38" y="34" width="1" height="1"/><rect x="39" y="34" width="1" height="1"/><rect x="41" y="34" width="1" height="1"/><rect x="42" y="34" width="1" height="1"/><rect x="10" y="35" width="1" height="1"/><rect x="13" y="35" width="1" height="1"/><rect x="15" y="35" width="1" height="1"/><rect x="16" y="35" width="1" height="1"/><rect x="17" y="35" width="1" height="1"/><rect x="18" y="35" width="1" height="1"/><rect x="21" y="35" width="1" height="1"/><rect x="23" y="35" width="1" height="1"/><rect x="26" y="35" width="1" height="1"/><rect x="28" y="35" width="1" height="1"/><rect x="29" y="35" width="1" height="1"/><rect x="30" y="35" width="1" height="1"/><rect x="32" y="35" width="1" height="1"/><rect x="33" y="35" width="1" height="1"/><rect x="34" y="35" width="1" height="1"/><rect x="38" y="35" width="1" height="1"/><rect x="39" y="35" width="1" height="1"/><rect x="2" y="36" width="1" height="1"/><rect x="3" y="36" width="1" height="1"/><rect x="4" y="36" width="1" height="1"/><rect x="5" y="36" width="1" height="1"/><rect x="6" y="36" width="1" height="1"/><rect x="7" y="36" width="1" height="1"/><rect x="8" y="36" width="1" height="1"/><rect x="10" y="36" width="1" height="1"/><rect x="11" y="36" width="1" height="1"/><rect x="13" y="36" width="1" height="1"/><rect x="17" y="36" width="1" height="1"/><rect x="18" y="36" width="1" height="1"/><rect x="19" y="36" width="1" height="1"/><rect x="20" y="36" width="1" height="1"/><rect x="21" y="36" width="1" height="1"/><rect x="22" y="36" width="1" height="1"/><rect x="25" y="36" width="1" height="1"/><rect x="26" y="36" width="1" height="1"/><rect x="27" y="36" width="1" height="1"/><rect x="28" y="36" width="1" height="1"/><rect x="29" y="36" width="1" height="1"/><rect x="30" y="36" width="1" height="1"/><rect x="31" y="36" width="1" height="1"/><rect x="32" y="36" width="1" height="1"/><rect x="33" y="36" width="1" height="1"/><rect x="34" y="36" width="1" height="1"/><rect x="36" y="36" width="1" height="1"/><rect x="38" y="36" width="1" height="1"/><rect x="42" y="36" width="1" height="1"/><rect x="2" y="37" width="1" height="1"/><rect x="8" y="37" width="1" height="1"/><rect x="11" y="37" width="1" height="1"/><rect x="12" y="37" width="1" height="1"/><rect x="15" y="37" width="1" height="1"/><rect x="16" y="37" width="1" height="1"/><rect x="18" y="37" width="1" height="1"/><rect x="20" y="37" width="1" height="1"/><rect x="21" y="37" width="1" height="1"/><rect x="23" y="37" width="1" height="1"/><rect x="25" y="37" width="1" height="1"/><rect x="26" y="37" width="1" height="1"/><rect x="28" y="37" width="1" height="1"/><rect x="30" y="37" width="1" height="1"/><rect x="33" y="37" width="1" height="1"/><rect x="34" y="37" width="1" height="1"/><rect x="38" y="37" width="1" height="1"/><rect x="41" y="37" width="1" height="1"/><rect x="42" y="37" width="1" height="1"/><rect x="2" y="38" width="1" height="1"/><rect x="4" y="38" width="1" height="1"/><rect x="5" y="38" width="1" height="1"/><rect x="6" y="38" width="1" height="1"/><rect x="8" y="38" width="1" height="1"/><rect x="13" y="38" width="1" height="1"/><rect x="14" y="38" width="1" height="1"/><rect x="17" y="38" width="1" height="1"/><rect x="19" y="38" width="1" height="1"/><rect x="20" y="38" width="1" height="1"/><rect x="23" y="38" width="1" height="1"/><rect x="25" y="38" width="1" height="1"/><rect x="26" y="38" width="1" height="1"/><rect x="27" y="38" width="1" height="1"/><rect x="28" y="38" width="1" height="1"/><rect x="29" y="38" width="1" height="1"/><rect x="30" y="38" width="1" height="1"/><rect x="33" y="38" width="1" height="1"/><rect x="34" y="38" width="1" height="1"/><rect x="35" y="38" width="1" height="1"/><rect x="36" y="38" width="1" height="1"/><rect x="37" y="38" width="1" height="1"/><rect x="38" y="38" width="1" height="1"/><rect x="41" y="38" width="1" height="1"/><rect x="2" y="39" width="1" height="1"/><rect x="4" y="39" width="1" height="1"/><rect x="5" y="39" width="1" height="1"/><rect x="6" y="39" width="1" height="1"/><rect x="8" y="39" width="1" height="1"/><rect x="13" y="39" width="1" height="1"/><rect x="14" y="39" width="1" height="1"/><rect x="16" y="39" width="1" height="1"/><rect x="17" y="39" width="1" height="1"/><rect x="18" y="39" width="1" height="1"/><rect x="20" y="39" width="1" height="1"/><rect x="22" y="39" width="1" height="1"/><rect x="23" y="39" width="1" height="1"/><rect x="25" y="39" width="1" height="1"/><rect x="26" y="39" width="1" height="1"/><rect x="28" y="39" width="1" height="1"/><rect x="29" y="39" width="1" height="1"/><rect x="30" y="39" width="1" height="1"/><rect x="34" y="39" width="1" height="1"/><rect x="37" y="39" width="1" height="1"/><rect x="38" y="39" width="1" height="1"/><rect x="39" y="39" width="1" height="1"/><rect x="41" y="39" width="1" height="1"/><rect x="2" y="40" width="1" height="1"/><rect x="4" y="40" width="1" height="1"/><rect x="5" y="40" width="1" height="1"/><rect x="6" y="40" width="1" height="1"/><rect x="8" y="40" width="1" height="1"/><rect x="10" y="40" width="1" height="1"/><rect x="11" y="40" width="1" height="1"/><rect x="12" y="40" width="1" height="1"/><rect x="15" y="40" width="1" height="1"/><rect x="18" y="40" width="1" height="1"/><rect x="20" y="40" width="1" height="1"/><rect x="21" y="40" width="1" height="1"/><rect x="25" y="40" width="1" height="1"/><rect x="26" y="40" width="1" height="1"/><rect x="29" y="40" width="1" height="1"/><rect x="33" y="40" width="1" height="1"/><rect x="35" y="40" width="1" height="1"/><rect x="38" y="40" width="1" height="1"/><rect x="39" y="40" width="1" height="1"/><rect x="40" y="40" width="1" height="1"/><rect x="42" y="40" width="1" height="1"/><rect x="2" y="41" width="1" height="1"/><rect x="8" y="41" width="1" height="1"/><rect x="12" y="41" width="1" height="1"/><rect x="13" y="41" width="1" height="1"/><rect x="16" y="41" width="1" height="1"/><rect x="19" y="41" width="1" height="1"/><rect x="20" y="41" width="1" height="1"/><rect x="24" y="41" width="1" height="1"/><rect x="26" y="41" width="1" height="1"/><rect x="28" y="41" width="1" height="1"/><rect x="29" y="41" width="1" height="1"/><rect x="32" y="41" width="1" height="1"/><rect x="33" y="41" width="1" height="1"/><rect x="35" y="41" width="1" height="1"/><rect x="36" y="41" width="1" height="1"/><rect x="39" y="41" width="1" height="1"/><rect x="2" y="42" width="1" height="1"/><rect x="3" y="42" width="1" height="1"/><rect x="4" y="42" width="1" height="1"/><rect x="5" y="42" width="1" height="1"/><rect x="6" y="42" width="1" height="1"/><rect x="7" y="42" width="1" height="1"/><rect x="8" y="42" width="1" height="1"/><rect x="10" y="42" width="1" height="1"/><rect x="11" y="42" width="1" height="1"/><rect x="12" y="42" width="1" height="1"/><rect x="13" y="42" width="1" height="1"/><rect x="14" y="42" width="1" height="1"/><rect x="16" y="42" width="1" height="1"/><rect x="17" y="42" width="1" height="1"/><rect x="18" y="42" width="1" height="1"/><rect x="20" y="42" width="1" height="1"/><rect x="21" y="42" width="1" height="1"/><rect x="22" y="42" width="1" height="1"/><rect x="24" y="42" width="1" height="1"/><rect x="29" y="42" width="1" height="1"/><rect x="30" y="42" width="1" height="1"/><rect x="34" y="42" width="1" height="1"/><rect x="35" y="42" width="1" height="1"/><rect x="36" y="42" width="1" height="1"/><rect x="38" y="42" width="1" height="1"/><rect x="39" y="42" width="1" height="1"/><rect x="40" y="42" width="1" height="1"/><rect x="42" y="42" width="1" height="1"/>
  </g>
</svg>
